<svg width="128" height="128" viewBox="0 0 128 128" fill="none" xmlns="http://www.w3.org/2000/svg">
<rect width="128" height="128" rx="32" fill="#D05599"/>
<path d="M99.0541 73.1576C105.196 70.5724 109.336 65.2637 108.979 58.37C108.879 56.4557 108.452 54.5616 107.741 52.7848C107.084 51.1444 106.026 49.7714 105.273 48.1945C103.724 44.9498 103.012 41.3498 101.728 38.0003C96.2003 23.5913 78.0764 19.221 64.9793 25.2815C59.1021 28.0011 54.5646 32.8681 51.6643 38.6441C56.1578 37.0842 61.2454 37.9925 64.9401 41.0042C64.7948 41.2048 64.6533 41.4065 64.5184 41.611C58.3522 37.0452 49.3524 39.1717 45.7784 45.9686C42.3238 52.5386 45.3447 60.9536 52.149 63.8005C56.2711 65.5252 61.1012 64.9058 64.6609 62.1927C64.8142 62.3804 64.9733 62.564 65.136 62.7434C60.9911 66.2484 55.0211 67.0138 50.1455 64.6387C51.912 67.4901 54.388 69.8342 57.2113 71.601C55.1209 75.421 53.7027 79.7242 53.6023 84.1137C53.5111 88.1038 53.7248 92.4131 55.1563 96.1766C51.5228 96.0876 47.3588 95.3956 44.8053 92.5228C42.3934 89.8092 41.9304 85.8394 41.9358 82.3433C41.9425 78.0326 42.8877 73.9046 43.4609 69.6619C44.0317 65.4375 43.663 61.0151 41.8732 57.1145C38.2722 49.2665 28.5722 44.6546 20.4944 48.347C12.5979 51.9566 8.77805 62.7554 15.3604 69.496C18.04 72.24 22.1187 73.6928 25.8541 72.5653C29.3541 71.5088 32.1463 68.3226 32.5021 64.6107C32.8571 60.9055 30.3347 57.0218 26.6226 56.2601C24.7409 55.874 22.9272 57.3009 23.0567 59.2963C23.1132 60.1662 23.5712 60.9867 24.2812 61.4867C25.0692 62.0416 26.0712 62.0068 26.5486 62.9776C27.4609 64.8324 25.4076 66.8128 23.7254 67.0808C21.6989 67.4036 19.6268 65.9534 18.6074 64.2777C16.2418 60.389 18.9898 55.5456 22.6865 53.7537C26.2368 52.0328 30.5025 53.0513 33.4721 55.49C36.0433 57.6016 37.4495 60.761 37.8209 64.0402C38.2857 68.145 37.0472 72.1952 36.5554 76.2423C36.0642 80.2839 35.8719 84.4645 36.7065 88.4747C37.4779 92.1815 39.2361 95.6341 42.1942 98.0364C45.1486 100.436 48.8852 101.518 52.6097 101.878C54.9448 102.104 57.3003 102.06 59.636 101.866C60.7212 102.542 61.9914 103.063 63.4704 103.42C63.9997 105.15 65.5894 106.356 67.4148 106.356H104.449C109.025 106.356 109.055 100.763 108.485 97.4827C107.894 94.0769 106.156 90.9267 103.272 88.98C103.251 82.9169 101.532 77.9672 99.0541 73.1576ZM62.1321 56.9401C61.0482 58.08 59.5274 58.7937 57.8419 58.7937C54.5599 58.7937 51.89 56.0998 51.89 52.7882C51.89 49.4766 54.5599 46.7827 57.8419 46.7827C59.466 46.7827 60.9388 47.4439 62.0138 48.5117C61.8255 49.8423 61.7322 51.3177 61.7322 52.9894C61.7322 54.4655 61.8717 55.7707 62.1321 56.9401ZM75.8112 57.3502C76.4007 54.3005 78.5065 51.6445 79.8218 48.8748C80.9738 46.4487 81.7096 43.7825 83.2442 41.5611C86.0235 37.5378 90.7502 35.1282 95.6117 35.346C98.0422 38.7079 98.9013 42.7792 100.234 46.6449C100.82 48.3437 101.456 50.0277 102.416 51.5503C103.55 53.3479 104.408 55.2284 104.726 57.3535L103.717 57.027C102.213 56.4155 101.253 58.7467 102.243 59.7454L104.186 61.7065C104.294 61.8155 104.416 61.9007 104.542 61.9749C102.834 68.7244 94.8799 70.697 88.9102 71.2978C81.9721 70.8452 74.3069 65.1325 75.8112 57.3502ZM95.6816 101.564H67.9591H67.9555H67.948C67.8532 100.602 67.7358 99.7196 68.3374 98.9157C69.002 98.0279 70.1112 97.449 71.0819 96.9806C74.0452 95.5508 77.3673 94.7875 80.5916 94.2506C83.9054 93.6987 87.7314 93.1217 90.9947 94.19C94.1038 95.2079 96.1818 98.2024 95.6816 101.564ZM96.9506 100.264C96.6468 95.7413 93.3129 92.9706 88.9948 92.4947C91.7832 92.287 94.8461 92.2867 97.1419 94.1451C99.236 95.8401 100.176 98.923 99.8017 101.564H96.929C96.98 101.131 96.9797 100.698 96.9506 100.264ZM100.577 97.1351C99.684 94.3243 97.4844 92.3353 94.6789 91.5727C97.4155 91.4972 100.225 92.043 102.054 94.2759C103.627 96.1973 104.259 99.1122 103.926 101.564H101.049C101.221 100.099 101.022 98.535 100.577 97.1351ZM100.005 88.4708C100.005 89.3509 99.933 90.2429 99.768 91.1076C98.1775 90.4531 96.4606 90.2672 94.7554 90.3245C93.4038 85.5221 94.1105 80.1616 96.8096 75.9597C98.6059 79.8277 100.005 84.1581 100.005 88.4708ZM90.9576 52.6041C90.8768 49.9585 92.3213 47.7669 94.184 47.7089C96.0466 47.651 97.6221 49.7487 97.7029 52.3943C97.7838 55.0399 96.3393 57.2315 94.4766 57.2895C92.6139 57.3474 91.0384 55.2497 90.9576 52.6041Z" fill="white"/>
</svg>
